# xmcd
#
# Track frame offsets:
#	150
#	12644
#	24484
#	36118
#	47745
#	62919
#	75594
#	86598
#	97637
#	109388
#	123179
#	132475
#
# Disc length: 1921 seconds
#
# Revision: 0
# Processed by: cddbd v1.5.2PL0 Copyright (c) Steve Scherf et al.
# Submitted via: dBpowerAMP V4.0
#
DISCID=96077f0c
DTITLE=Jimmy Martin - This World Is Not My Home
DYEAR=1963
DGENRE=Bluegrass
TTITLE0=Little White Church
TTITLE1=This World Is Not My Home
TTITLE2=Prayer Bell of Heaven
TTITLE3=What Would You Give In Exchange For Your Soul?
TTITLE4=Lord, I'm Coming Home
TTITLE5=Give Me Your Hand
TTITLE6=Give Me The Roses Now
TTITLE7=Shut-In's Prayer
TTITLE8=Pray The Clouds Away
TTITLE9=God Guide Our Leader's Hand
TTITLE10=Goodbye
TTITLE11=Voice of My Savior
EXTD=
EXTT0=
EXTT1=
EXTT2=
EXTT3=
EXTT4=
EXTT5=
EXTT6=
EXTT7=
EXTT8=
EXTT9=
EXTT10=
EXTT11=
PLAYORDER=
